Patient4_TMGait_0pt5_02_left_29_GRF.mot
version=1
nRows=65
nColumns=19
inDegrees=no
endheader
time	F1x	F1y	F1z	M1x	M1y	M1z	F2x	F2y	F2z	M2x	M2y	M2z	EC1x	EC1y	EC1z	EC2x	EC2y	EC2z
37.19	26.5958	2.171	-2.0953	0.27107	6.4934	-8.1107	-24.3682	719.6851	-50.2301	281.6488	52.6043	675.5936	-0.0592	0.0182	-0.0073	-0.0462	0.0165	0.9585
37.2026	17.722	2.3505	-1.5053	-0.091251	4.3716	-4.5364	-20.1397	719.4287	-51.6097	281.2693	52.8281	672.7031	-0.0592	0.0182	-0.0073	-0.0462	0.0165	0.9585
37.2153	10.2853	2.4615	-0.96373	-0.40576	2.5591	-1.5849	-16.0717	719.5638	-52.5218	281.0783	52.5307	669.7376	-0.0592	0.0182	-0.0073	-0.0462	0.0165	0.9585
37.2279	4.6606	2.538	-0.52524	-0.6569	1.167	0.63676	-12.4282	720.674	-52.9136	281.309	51.7279	667.3505	-0.0592	0.0182	-0.0073	-0.0462	0.0165	0.9585
37.2406	0.78927	2.5926	-0.20053	-0.84385	0.19292	2.1581	-9.3293	723.2413	-52.8723	282.1457	50.5546	666.0845	-0.0592	0.0182	-0.0073	-0.0462	0.0165	0.9585
37.2532	-1.6016	2.6162	0.020134	-0.97164	-0.42231	3.0718	-6.8292	727.5021	-52.5403	283.6694	49.1904	666.2521	-0.0592	0.0182	-0.0073	-0.0462	0.0165	0.9585
37.2659	-2.8943	2.593	0.15849	-1.0431	-0.77063	3.514	-4.8873	733.3523	-52.0709	285.8279	47.8021	667.8314	-0.0592	0.0182	-0.0073	-0.0462	0.0165	0.9585
37.2785	-3.4151	2.4664	0.24279	-1.0477	-0.93725	3.5434	-3.4406	740.3717	-51.5825	288.4427	46.514	670.5173	-0.0592	0.0182	-0.0073	-0.0462	0.0165	0.9585
37.2911	-3.4935	2.1889	0.2923	-0.9713	-1.0045	3.2475	-2.3869	747.8467	-51.1517	291.2261	45.3935	673.7059	-0.0592	0.0182	-0.0073	-0.0462	0.0165	0.9585
37.3038	-3.3191	1.6696	0.33058	-0.78644	-1.027	2.5997	-1.634	754.9353	-50.8019	293.8411	44.4562	676.6813	-0.0592	0.0182	-0.0073	-0.0462	0.0165	0.9585
37.3164	-3.0679	0.82645	0.36363	-0.46491	-1.0405	1.593	-1.0905	760.7786	-50.5194	295.9485	43.6808	678.7099	-0.0592	0.0182	-0.0073	-0.0462	0.0165	0.9585
37.3291	-2.7895	-0.44171	0.39904	0.023933	-1.0529	0.14776	-0.68383	764.6247	-50.2563	297.2586	43.0128	679.1431	-0.0592	0.0182	-0.0073	-0.0462	0.0165	0.9585
37.3417	-2.5127	-2.1738	0.43112	0.6917	-1.0545	-1.7466	-0.34791	765.9119	-49.9712	297.5561	42.3933	677.4963	-0.0592	0.0182	-0.0073	-0.0462	0.0165	0.9585
37.3544	-2.1844	-4.3278	0.44621	1.5182	-1.0071	-4.0517	0.00077625	764.3086	-49.6362	296.716	41.7643	673.4585	-0.0592	0.0182	-0.0073	-0.0462	0.0165	0.9585
37.367	-1.7252	-6.6925	0.42201	2.4224	-0.8563	-6.5521	0.41526	759.8559	-49.2596	294.7513	41.1031	667.0554	-0.0592	0.0182	-0.0073	-0.0462	0.0165	0.9585
37.3796	-1.0277	-8.823	0.3281	3.236	-0.53442	-8.7946	1.0049	752.996	-48.8763	291.8312	40.3909	658.6181	-0.0592	0.0182	-0.0073	-0.0462	0.0165	0.9585
37.3923	0.043168	-9.9737	0.13004	3.6761	0.040873	-10.0294	1.8394	744.5664	-48.5379	288.2722	39.6284	648.8354	-0.0592	0.0182	-0.0073	-0.0462	0.0165	0.9585
37.4049	1.5816	-8.9842	-0.21776	3.3073	0.95301	-9.0648	3.0335	735.5783	-48.2945	284.4636	38.8015	638.5241	-0.0592	0.0182	-0.0073	-0.0462	0.0165	0.9585
37.4176	3.6651	-4.2916	-0.76319	1.5395	2.2785	-4.3173	4.6502	727.0283	-48.1878	280.7876	37.9077	628.5184	-0.0592	0.0182	-0.0073	-0.0462	0.0165	0.9585
37.4302	6.2253	6.0663	-1.553	-2.3627	4.0444	6.2446	6.7249	719.6051	-48.2344	277.5091	36.9418	619.3913	-0.0592	0.0182	-0.0073	-0.0462	0.0165	0.9585
37.4429	9.0391	24.2337	-2.6029	-9.203	6.1811	24.83	9.2135	713.4439	-48.4053	274.6815	35.8988	611.2819	-0.0592	0.0182	-0.0073	-0.0462	0.0165	0.9585
37.4555	11.5792	52.1624	-3.8752	-19.7063	8.4495	53.4904	11.9984	707.9685	-48.6045	272.0898	34.7545	603.7585	-0.0592	0.0182	-0.0073	-0.0462	0.0165	0.9585
37.4681	12.9598	90.9266	-5.2332	-34.262	10.3703	93.3712	14.927	701.8768	-48.668	269.2491	33.4496	595.7954	-0.0592	0.0182	-0.0073	-0.0462	0.0165	0.9585
37.4808	11.8785	139.7515	-6.3866	-52.5575	11.1527	143.7344	17.7962	693.3249	-48.3992	265.4737	31.9117	585.9455	-0.0592	0.0182	-0.0073	-0.0462	0.0165	0.9585
37.4934	7.0976	195.0833	-6.8512	-73.2293	9.8356	200.9896	20.4205	680.264	-47.5975	260.0095	30.061	572.5698	-0.0592	0.0182	-0.0073	-0.0462	0.0165	0.9585
37.5061	-1.1571	250.3649	-5.8503	-93.7754	5.7039	258.3699	22.6084	660.9472	-46.1225	252.2133	27.8686	554.2896	-0.0592	0.0182	-0.0073	-0.0462	0.0165	0.9585
37.5187	-10.6796	298.3763	-2.593	-111.4617	-1.1975	308.2528	24.2918	634.2911	-43.9675	241.6979	25.3751	530.211	-0.0592	0.0182	-0.0073	-0.0462	0.0165	0.9585
37.5314	-19.5884	335.689	2.257	-125.0239	-9.4517	346.8063	25.4468	600.2847	-41.2696	228.4642	22.7084	500.3468	-0.0592	0.0182	-0.0073	-0.0462	0.0165	0.9585
37.544	-26.8156	363.3871	7.9763	-134.8878	-17.907	374.993	26.1678	559.7687	-38.2774	212.8287	20.033	465.3637	-0.0592	0.0182	-0.0073	-0.0462	0.0165	0.9585
37.5566	-31.9193	384.6584	13.6933	-142.2986	-25.5147	396.1125	26.5479	514.1193	-35.187	195.3067	17.4564	426.3824	-0.0592	0.0182	-0.0073	-0.0462	0.0165	0.9585
37.5693	-34.9782	403.0139	18.9405	-148.6057	-31.8378	413.841	26.6548	464.9334	-32.0365	176.5037	14.9734	384.7054	-0.0592	0.0182	-0.0073	-0.0462	0.0165	0.9585
37.5819	-36.3173	421.0965	23.3236	-154.8398	-36.6237	430.9248	26.4496	413.8282	-28.7465	157.0338	12.5197	341.6647	-0.0592	0.0182	-0.0073	-0.0462	0.0165	0.9585
37.5946	-36.3201	440.5981	26.7851	-161.661	-39.9849	449.1328	25.8364	362.3139	-25.2452	137.466	10.0655	298.5101	-0.0592	0.0182	-0.0073	-0.0462	0.0165	0.9585
37.6072	-35.3866	462.773	29.4143	-169.5412	-42.1825	469.7476	24.7065	311.7691	-21.5417	118.3082	7.652	256.3783	-0.0592	0.0182	-0.0073	-0.0462	0.0165	0.9585
37.6199	-33.8587	488.4976	31.5399	-178.7851	-43.6705	493.6724	22.9784	263.4046	-17.7768	99.9972	5.4083	216.2598	-0.0592	0.0182	-0.0073	-0.0462	0.0165	0.9585
37.6325	-31.9883	518.072	33.5501	-189.4731	-44.9135	521.1757	20.6503	218.2766	-14.1765	82.9108	3.5062	178.9975	-0.0592	0.0182	-0.0073	-0.0462	0.0165	0.9585
37.6451	-30.124	551.0996	35.8661	-201.4196	-46.4289	551.8358	17.7794	177.3091	-10.9774	67.3794	2.1051	145.3206	-0.0592	0.0182	-0.0073	-0.0462	0.0165	0.9585
37.6578	-28.519	586.6794	38.8193	-214.2741	-48.6125	584.698	14.5463	141.2044	-8.3393	53.6636	1.2632	115.7384	-0.0592	0.0182	-0.0073	-0.0462	0.0165	0.9585
37.6704	-27.317	623.874	42.4293	-227.6853	-51.5236	618.8043	11.1697	110.3803	-6.3211	41.9234	0.94625	90.5456	-0.0592	0.0182	-0.0073	-0.0462	0.0165	0.9585
37.6831	-26.4982	661.5896	46.5067	-241.2696	-54.9657	653.0152	7.8689	84.8215	-4.8864	32.1659	1.0504	69.67	-0.0592	0.0182	-0.0073	-0.0462	0.0165	0.9585
37.6957	-25.9681	698.5028	50.7318	-254.5667	-58.5912	686.0106	4.7736	64.158	-3.9196	24.2631	1.4375	52.7968	-0.0592	0.0182	-0.0073	-0.0462	0.0165	0.9585
37.7084	-25.534	733.0586	54.8571	-267.0316	-62.0904	716.2513	1.9892	47.7548	-3.276	17.985	1.9577	39.3949	-0.0592	0.0182	-0.0073	-0.0462	0.0165	0.9585
37.721	-25.0268	763.6845	58.6358	-278.1015	-65.168	742.2469	-0.39435	34.8845	-2.7956	13.061	2.4481	28.8826	-0.0592	0.0182	-0.0073	-0.0462	0.0165	0.9585
37.7336	-24.2847	789.0137	61.9574	-287.283	-67.6621	762.7286	-2.2382	24.8142	-2.3649	9.2189	2.7691	20.6647	-0.0592	0.0182	-0.0073	-0.0462	0.0165	0.9585
37.7463	-23.183	808.1563	64.7169	-294.2489	-69.4365	776.9043	-3.4062	16.9444	-1.9042	6.2331	2.8079	14.2561	-0.0592	0.0182	-0.0073	-0.0462	0.0165	0.9585
37.7589	-21.623	820.7302	66.9248	-298.8526	-70.4727	784.4927	-3.8265	10.8523	-1.4119	3.9416	2.5432	9.3064	-0.0592	0.0182	-0.0073	-0.0462	0.0165	0.9585
37.7716	-19.527	826.8759	68.5512	-301.1406	-70.7271	785.7046	-3.5812	6.3036	-0.91903	2.2501	2.0345	5.6111	-0.0592	0.0182	-0.0073	-0.0462	0.0165	0.9585
37.7842	-16.9066	827.1702	69.6455	-301.3158	-70.2593	781.1961	-2.9659	3.1832	-0.49612	1.1037	1.4505	3.0784	-0.0592	0.0182	-0.0073	-0.0462	0.0165	0.9585
37.7969	-13.7785	822.4441	70.2147	-299.6802	-69.0983	771.8404	-2.2304	1.2637	-0.17695	0.41177	0.91538	1.5202	-0.0592	0.0182	-0.0073	-0.0462	0.0165	0.9585
37.8095	-10.2556	813.7368	70.3587	-296.6052	-67.3875	758.7241	-1.5463	0.25561	0.034236	0.062272	0.49448	0.70515	-0.0592	0.0182	-0.0073	-0.0462	0.0165	0.9585
37.8221	-6.4561	802.1941	70.131	-292.5051	-65.2318	742.9827	-0.96861	-0.12834	0.1482	-0.054378	0.20076	0.38099	-0.0592	0.0182	-0.0073	-0.0462	0.0165	0.9585
37.8348	-2.5551	788.985	69.6557	-287.7974	-62.8149	725.7936	-0.54646	-0.11064	0.19019	-0.025302	0.02385	0.38246	-0.0592	0.0182	-0.0073	-0.0462	0.0165	0.9585
37.8474	1.3131	775.2183	68.9744	-282.8846	-60.2369	708.2296	-0.25097	0.11834	0.18632	0.079716	-0.068522	0.54327	-0.0592	0.0182	-0.0073	-0.0462	0.0165	0.9585
37.8601	4.983	761.8763	68.1643	-278.1275	-57.6318	691.2315	-0.078826	0.45405	0.16005	0.21955	-0.10125	0.80061	-0.0592	0.0182	-0.0073	-0.0462	0.0165	0.9585
37.8727	8.3644	749.7739	67.1976	-273.8316	-55.0111	675.5159	0.013993	0.79821	0.12423	0.36068	-0.097272	1.0664	-0.0592	0.0182	-0.0073	-0.0462	0.0165	0.9585
37.8854	11.4003	739.5443	66.0995	-270.2307	-52.4193	661.6315	0.040966	1.1178	0.093272	0.49056	-0.071748	1.3286	-0.0592	0.0182	-0.0073	-0.0462	0.0165	0.9585
37.898	14.0987	731.6003	64.8569	-267.4802	-49.8404	649.8946	0.032939	1.3894	0.071501	0.60177	-0.038864	1.5534	-0.0592	0.0182	-0.0073	-0.0462	0.0165	0.9585
37.9106	16.4849	726.1701	63.5399	-265.6631	-47.3253	640.4718	-0.010584	1.6041	0.059096	0.69011	-0.0020646	1.7313	-0.0592	0.0182	-0.0073	-0.0462	0.0165	0.9585
37.9233	18.6149	723.3388	62.1791	-264.8063	-44.8793	633.4125	-0.085519	1.7487	0.053574	0.74899	0.039022	1.8528	-0.0592	0.0182	-0.0073	-0.0462	0.0165	0.9585
37.9359	20.5335	723.0625	60.8561	-264.884	-42.5567	628.6656	-0.18948	1.7894	0.051414	0.76688	0.084154	1.8843	-0.0592	0.0182	-0.0073	-0.0462	0.0165	0.9585
37.9486	22.2838	725.1948	59.5985	-265.8324	-40.3664	626.0937	-0.338	1.6877	0.052852	0.72762	0.13778	1.7955	-0.0592	0.0182	-0.0073	-0.0462	0.0165	0.9585
37.9612	23.9125	729.4526	58.4568	-267.5381	-38.3403	625.4541	-0.51904	1.3579	0.061769	0.59934	0.19643	1.4899	-0.0592	0.0182	-0.0073	-0.0462	0.0165	0.9585
37.9739	25.4578	735.4303	57.4356	-269.845	-36.471	626.4089	-0.74508	0.71288	0.081611	0.34653	0.26016	0.8838	-0.0592	0.0182	-0.0073	-0.0462	0.0165	0.9585
37.9865	26.9539	742.5947	56.568	-272.5512	-34.7749	628.5039	-0.984	-0.36067	0.1127	-0.072572	0.3181	-0.15675	-0.0592	0.0182	-0.0073	-0.0462	0.0165	0.9585
37.9991	28.4211	750.3022	55.8673	-275.4149	-33.2527	631.2004	-1.2205	-1.9406	0.15893	-0.68926	0.35647	-1.7125	-0.0592	0.0182	-0.0073	-0.0462	0.0165	0.9585
